<?xml version="1.0" encoding="utf-8"?>
<!-- Generator: Adobe Illustrator 22.1.0, SVG Export Plug-In . SVG Version: 6.00 Build 0)  -->
<svg version="1.1" id="Capa_1" xmlns="http://www.w3.org/2000/svg" xmlns:xlink="http://www.w3.org/1999/xlink" x="0px" y="0px"
	 viewBox="0 0 446 224" style="enable-background:new 0 0 446 224;" xml:space="preserve">
<style type="text/css">
	.st0{fill:#D7187D;}
	.st1{fill:#D8D9DD;}
</style>
<title>Logotipo</title>
<path class="st0" d="M82.9,99.9H66v-79c0-3.4-2.7-6.1-6.1-6c-2.3,0-4.5,1.4-5.5,3.5l-42.1,88.8c-3.2,6.6-0.4,14.5,6.3,17.7
	c1.8,0.9,3.8,1.3,5.7,1.3h16.9v79c0,2.8,2,5.3,4.7,5.9c0.4,0.1,0.9,0.2,1.3,0.1c2.3,0,4.5-1.3,5.5-3.5l42.1-88.8
	c3.2-6.6,0.4-14.5-6.2-17.7C86.8,100.3,84.9,99.8,82.9,99.9L82.9,99.9z M50.1,126.1h2.3c7.5,0,13.6-6.1,13.6-13.6v-3.7h16.9
	c2.4,0,4.4,1.9,4.4,4.3c0,0.7-0.1,1.3-0.4,1.9l-36.8,77.5V126.1z M57.1,99.9h-2.3c-7.5,0-13.6,6.1-13.6,13.6v3.7H24.3
	c-2.4,0-4.4-2-4.3-4.4c0-0.6,0.1-1.2,0.4-1.8l36.7-77.5L57.1,99.9z M50.1,113.5c0-2.6,2.1-4.7,4.7-4.7h2.3v3.7
	c0,2.6-2.1,4.7-4.7,4.7h-2.3V113.5z"/>
<path class="st0" d="M146.8,86l-1-2.2c-0.2-0.3-0.4-0.5-0.7-0.7c-0.3-0.3-0.7-0.4-1.1-0.4h-10c-0.2,0-0.5,0-0.7,0.1
	c-0.2,0.1-0.5,0.2-0.7,0.4c-0.2,0.1-0.4,0.3-0.5,0.5c-0.1,0.1-0.2,0.3-0.2,0.5l-21.3,55.2c-0.2,0.4-0.2,0.9,0.2,1.2
	c0.4,0.3,0.8,0.4,1.2,0.4h11.6c0.9,0,1.7-0.6,2-1.4c0.5-1.3,1-2.7,1.5-4s1-2.6,1.5-4h20.8c0.5,1.3,1,2.7,1.5,4s1,2.6,1.5,4
	c0.1,0.4,0.4,0.8,0.8,1.1c0.4,0.3,0.9,0.4,1.4,0.3h11.3c0.5,0,1.1-0.1,1.5-0.5c0.3-0.4,0.3-0.9,0.1-1.3L146.8,86z M132.9,118.9
	c0.5-1.3,1-2.8,1.5-4.3s1-3.1,1.5-4.7s1-3.1,1.5-4.7s1-3,1.5-4.3l6,17.9H132.9z"/>
<path class="st0" d="M210.6,127H189V84.3c0-0.5-0.2-0.9-0.6-1.2c-0.3-0.3-0.8-0.5-1.2-0.5h-11.6c-0.5,0-1,0.2-1.3,0.5
	c-0.3,0.3-0.5,0.8-0.5,1.2v54.8c-0.1,0.8,0.4,1.6,1.3,1.7c0.1,0,0.3,0,0.4,0h35c0.5,0,1-0.2,1.3-0.6c0.3-0.3,0.4-0.8,0.4-1.2v-10.3
	c0-0.5-0.2-1-0.5-1.3C211.4,127.2,211,127,210.6,127z"/>
<path class="st0" d="M258.1,110.8c-1.8-1.5-3.9-2.7-6.1-3.6c-2.3-1-4.9-2-7.7-2.9c-1.4-0.5-2.7-0.9-3.8-1.3c-1-0.3-1.9-0.8-2.7-1.3
	c-0.6-0.4-1.2-0.9-1.6-1.5c-0.4-0.6-0.6-1.2-0.6-1.9c0-0.7,0.2-1.3,0.5-1.9c0.3-0.5,0.8-0.9,1.4-1.2c0.6-0.3,1.3-0.6,2-0.7
	c0.8-0.1,1.6-0.2,2.4-0.2c0.8,0,1.7,0.1,2.5,0.4c0.8,0.2,1.6,0.6,2.3,0.9c0.7,0.4,1.4,0.8,2.1,1.3c0.6,0.5,1.2,0.9,1.8,1.4l0.4,0.3
	c0.3,0.3,0.7,0.5,1,0.8c0.3,0.2,0.6,0.3,1,0.3c0.5,0,1-0.3,1.3-0.7l6-6.4c0.3-0.3,0.5-0.6,0.8-1c0.2-0.3,0.3-0.6,0.3-0.9
	c0-0.5-0.2-0.9-0.5-1.2c-0.4-0.5-0.9-1-1.4-1.5c-0.6-0.5-1.3-1.1-2.1-1.6s-1.6-1.1-2.5-1.6c-2-1.1-4.2-2-6.4-2.6
	c-2.2-0.5-4.5-0.8-6.9-0.8c-2.9,0-5.8,0.4-8.6,1.2c-2.4,0.7-4.6,1.8-6.6,3.3c-1.8,1.4-3.2,3.1-4.2,5.1c-1,2.1-1.5,4.3-1.5,6.6
	c-0.1,4.3,1.6,8.4,4.7,11.4c1.8,1.7,3.7,3.1,5.9,4.2c2.6,1.4,5.4,2.6,8.2,3.5c0.7,0.2,1.5,0.5,2.5,0.9c1,0.3,1.9,0.8,2.8,1.3
	c0.8,0.5,1.6,1,2.2,1.7c0.6,0.6,0.9,1.4,0.9,2.2c0,0.7-0.1,1.4-0.3,2.1c-0.2,0.7-0.6,1.2-1.1,1.7c-0.6,0.6-1.3,1-2.1,1.2
	c-1.1,0.3-2.2,0.5-3.4,0.5c-1.4,0-2.8-0.2-4.1-0.8c-1.4-0.5-2.8-1.2-4-2.1c-0.8-0.6-1.6-1.2-2.4-1.8c-0.7-0.6-1.3-1.1-1.7-1.5
	c-0.3-0.3-0.6-0.5-0.9-0.7c-0.2-0.1-0.5-0.2-0.8-0.2c-0.5,0.1-1,0.3-1.3,0.6l-6.7,6.5c-0.5,0.4-0.8,0.9-0.9,1.5
	c0.1,0.6,0.4,1.2,0.9,1.6l0.1,0.1c0,0,0.1,0.1,0.1,0.1c0,0,0,0,0.1,0.1c0,0,0.1,0.1,0.1,0.1l0.1,0.1c0.4,0.4,1,1,1.7,1.8
	c0.8,0.8,1.7,1.6,2.6,2.2c2.5,1.8,5.2,3.3,8.1,4.3c2.8,1.1,5.8,1.6,8.9,1.6c3,0,6.1-0.4,8.9-1.4c2.6-0.8,5.1-2.1,7.2-3.8
	c2-1.6,3.7-3.7,4.9-6c1.2-2.4,1.8-5.1,1.8-7.8c0.1-2.4-0.4-4.8-1.4-7C261.1,113.8,259.8,112.1,258.1,110.8z"/>
<path class="st0" d="M314.4,127.4h-26.4v-10h19.6c0.5,0,0.9-0.2,1.3-0.5c0.3-0.3,0.4-0.7,0.4-1.1v-8.5c0-0.4-0.1-0.9-0.5-1.2
	c-0.4-0.2-0.8-0.4-1.2-0.3h-19.6v-9.8h25.4c0.5,0,1-0.2,1.4-0.6c0.3-0.4,0.5-0.8,0.5-1.3v-9.7c0-0.5-0.1-1-0.5-1.4
	c-0.3-0.4-0.8-0.5-1.3-0.5h-38.9c-0.5,0-0.9,0.1-1.3,0.5c-0.3,0.4-0.5,0.8-0.5,1.3v54.8c0,0.5,0.1,0.9,0.5,1.3
	c0.3,0.3,0.8,0.4,1.2,0.4h39.7c1,0,1.5-0.4,1.6-1.1c0.2-0.2,0.3-0.4,0.3-0.7v-9.9c0.1-0.9-0.5-1.7-1.3-1.8
	C314.7,127.4,314.6,127.4,314.4,127.4z"/>
<path class="st0" d="M364.6,124.5c-0.2-0.3-0.6-0.6-1-0.7c-0.4,0-0.8,0.1-1.2,0.4c-1.3,1-2.7,1.7-4.3,2.2c-1.6,0.5-3.3,0.8-4.9,0.8
	c-4,0-7.8-1.6-10.6-4.5c-1.3-1.4-2.4-3.1-3.1-4.9c-0.7-1.9-1.1-3.9-1.1-6c0-2.1,0.4-4.1,1.1-6c0.7-1.8,1.7-3.5,3.1-4.9
	c2.7-2.9,6.6-4.6,10.6-4.6c3.3,0,6.5,1,9.1,3c0.3,0.3,0.8,0.4,1.2,0.3c0.4-0.1,0.7-0.4,0.9-0.8l6.6-9.4c0.3-0.5,0.3-1,0.1-1.5
	c-0.2-0.4-0.6-0.8-1-1c-2.4-1.6-5.1-2.9-7.9-3.8c-5.5-1.7-11.3-1.8-16.9-0.2c-2.5,0.7-4.9,1.7-7.2,3c-11.7,6.9-17.3,20.8-13.8,33.9
	c0.7,2.5,1.7,4.9,3,7.1c3.9,6.7,10.4,11.7,17.9,13.8c5.6,1.5,11.4,1.4,17-0.3c2.8-0.9,5.5-2.2,7.9-3.8c0.4-0.2,0.8-0.6,1-1
	c0.2-0.5,0.2-1-0.1-1.4L364.6,124.5z"/>
<path class="st0" d="M433.9,103.8c-0.7-2.5-1.7-4.9-3-7.2c-1.3-2.2-2.9-4.3-4.7-6.1c-1.8-1.8-3.9-3.4-6.1-4.7
	c-2.3-1.3-4.7-2.3-7.2-3c-5.2-1.4-10.8-1.4-16,0c-2.5,0.7-4.9,1.7-7.2,3c-2.2,1.3-4.3,2.9-6.1,4.7c-3.7,3.7-6.3,8.3-7.7,13.3
	c-2.2,7.8-1.1,16.1,3,23.1c1.3,2.2,2.9,4.2,4.7,6c1.8,1.8,3.9,3.4,6.1,4.7c9.4,5.5,20.9,5.5,30.3,0c2.2-1.3,4.3-2.9,6.1-4.7
	c1.8-1.8,3.4-3.8,4.7-6c1.3-2.2,2.3-4.6,3-7.1C435.3,114.6,435.3,109,433.9,103.8L433.9,103.8z M418.7,117.8
	c-0.7,1.8-1.7,3.5-3.1,4.9c-1.3,1.4-2.9,2.5-4.7,3.3c-3.8,1.6-8.1,1.6-11.9,0c-1.8-0.8-3.4-1.9-4.7-3.3c-1.3-1.4-2.4-3.1-3.1-4.9
	c-1.5-3.9-1.5-8.2,0-12.1c0.7-1.9,1.7-3.5,3.1-5c1.3-1.4,2.9-2.5,4.7-3.3c5.7-2.5,12.4-1.2,16.6,3.3c1.3,1.5,2.4,3.1,3.1,5
	C420.2,109.7,420.2,114,418.7,117.8L418.7,117.8z"/>
<path class="st1" d="M82.9,96.9H66v-79c0-3.4-2.7-6.1-6.1-6c-2.3,0-4.5,1.4-5.5,3.5l-42.1,88.8c-3.2,6.6-0.4,14.5,6.3,17.7
	c1.8,0.9,3.8,1.3,5.7,1.3h16.9v79c0,2.8,2,5.3,4.7,5.9c0.4,0.1,0.9,0.2,1.3,0.1c2.3,0,4.5-1.3,5.5-3.5l42.1-88.8
	c3.2-6.6,0.4-14.5-6.2-17.7C86.8,97.3,84.9,96.8,82.9,96.9L82.9,96.9z M50.1,123.1h2.3c7.5,0,13.6-6.1,13.6-13.6v-3.7h16.9
	c2.4,0,4.4,1.9,4.4,4.3c0,0.7-0.1,1.3-0.4,1.9l-36.8,77.5V123.1z M57.1,96.9h-2.3c-7.5,0-13.6,6.1-13.6,13.6v3.7H24.3
	c-2.4,0-4.4-2-4.3-4.4c0-0.6,0.1-1.2,0.4-1.8l36.7-77.5L57.1,96.9z M50.1,110.5c0-2.6,2.1-4.7,4.7-4.7h2.3v3.7
	c0,2.6-2.1,4.7-4.7,4.7h-2.3V110.5z"/>
<path class="st1" d="M146.8,83l-1-2.2c-0.2-0.3-0.4-0.5-0.7-0.7c-0.3-0.3-0.7-0.4-1.1-0.4h-10c-0.2,0-0.5,0-0.7,0.1
	c-0.2,0.1-0.5,0.2-0.7,0.4c-0.2,0.1-0.4,0.3-0.5,0.5c-0.1,0.1-0.2,0.3-0.2,0.5l-21.3,55.2c-0.2,0.4-0.2,0.9,0.2,1.2
	c0.4,0.3,0.8,0.4,1.2,0.4h11.6c0.9,0,1.7-0.6,2-1.4c0.5-1.3,1-2.7,1.5-4s1-2.6,1.5-4h20.8c0.5,1.3,1,2.7,1.5,4s1,2.6,1.5,4
	c0.1,0.4,0.4,0.8,0.8,1.1c0.4,0.3,0.9,0.4,1.4,0.3h11.3c0.5,0,1.1-0.1,1.5-0.5c0.3-0.4,0.3-0.9,0.1-1.3L146.8,83z M132.9,115.9
	c0.5-1.3,1-2.8,1.5-4.3s1-3.1,1.5-4.7s1-3.1,1.5-4.7s1-3,1.5-4.3l6,17.9H132.9z"/>
<path class="st1" d="M210.6,124H189V81.3c0-0.5-0.2-0.9-0.6-1.2c-0.3-0.3-0.8-0.5-1.2-0.5h-11.6c-0.5,0-1,0.2-1.3,0.5
	c-0.3,0.3-0.5,0.8-0.5,1.2v54.8c-0.1,0.8,0.4,1.6,1.3,1.7c0.1,0,0.3,0,0.4,0h35c0.5,0,1-0.2,1.3-0.6c0.3-0.3,0.4-0.8,0.4-1.2v-10.3
	c0-0.5-0.2-1-0.5-1.3C211.4,124.2,211,124,210.6,124z"/>
<path class="st1" d="M258.1,107.8c-1.8-1.5-3.9-2.7-6.1-3.6c-2.3-1-4.9-2-7.7-2.9c-1.4-0.5-2.7-0.9-3.8-1.3c-1-0.3-1.9-0.8-2.7-1.3
	c-0.6-0.4-1.2-0.9-1.6-1.5c-0.4-0.6-0.6-1.2-0.6-1.9c0-0.7,0.2-1.3,0.5-1.9c0.3-0.5,0.8-0.9,1.4-1.2c0.6-0.3,1.3-0.6,2-0.7
	c0.8-0.1,1.6-0.2,2.4-0.2c0.8,0,1.7,0.1,2.5,0.4c0.8,0.2,1.6,0.6,2.3,0.9c0.7,0.4,1.4,0.8,2.1,1.3c0.6,0.5,1.2,0.9,1.8,1.4l0.4,0.3
	c0.3,0.3,0.7,0.5,1,0.8c0.3,0.2,0.6,0.3,1,0.3c0.5,0,1-0.3,1.3-0.7l6-6.4c0.3-0.3,0.5-0.6,0.8-1c0.2-0.3,0.3-0.6,0.3-0.9
	c0-0.5-0.2-0.9-0.5-1.2c-0.4-0.5-0.9-1-1.4-1.5c-0.6-0.5-1.3-1.1-2.1-1.6s-1.6-1.1-2.5-1.6c-2-1.1-4.2-2-6.4-2.6
	c-2.2-0.5-4.5-0.8-6.9-0.8c-2.9,0-5.8,0.4-8.6,1.2c-2.4,0.7-4.6,1.8-6.6,3.3c-1.8,1.4-3.2,3.1-4.2,5.1c-1,2.1-1.5,4.3-1.5,6.6
	c-0.1,4.3,1.6,8.4,4.7,11.4c1.8,1.7,3.7,3.1,5.9,4.2c2.6,1.4,5.4,2.6,8.2,3.5c0.7,0.2,1.5,0.5,2.5,0.9c1,0.3,1.9,0.8,2.8,1.3
	c0.8,0.5,1.6,1,2.2,1.7c0.6,0.6,0.9,1.4,0.9,2.2c0,0.7-0.1,1.4-0.3,2.1c-0.2,0.7-0.6,1.2-1.1,1.7c-0.6,0.6-1.3,1-2.1,1.2
	c-1.1,0.3-2.2,0.5-3.4,0.4c-1.4,0-2.8-0.2-4.1-0.8c-1.4-0.5-2.8-1.2-4-2.1c-0.8-0.6-1.6-1.2-2.4-1.8c-0.7-0.6-1.3-1.1-1.7-1.5
	c-0.3-0.3-0.6-0.5-0.9-0.7c-0.2-0.1-0.5-0.2-0.8-0.2c-0.5,0.1-1,0.3-1.3,0.6l-6.7,6.5c-0.5,0.4-0.8,0.9-0.9,1.5
	c0.1,0.6,0.4,1.2,0.9,1.6l0.1,0.1c0,0,0.1,0.1,0.1,0.1c0,0,0,0,0.1,0.1c0,0,0.1,0.1,0.1,0.1l0.1,0.1c0.4,0.4,1,1,1.7,1.8
	c0.8,0.8,1.7,1.6,2.6,2.2c2.5,1.8,5.2,3.3,8.1,4.3c2.8,1.1,5.8,1.6,8.9,1.6c3,0,6.1-0.4,8.9-1.4c2.6-0.8,5.1-2.1,7.2-3.8
	c2-1.6,3.7-3.7,4.9-6c1.2-2.4,1.8-5.1,1.8-7.8c0.1-2.4-0.4-4.8-1.4-7C261.1,110.8,259.8,109.1,258.1,107.8z"/>
<path class="st1" d="M314.4,124.4h-26.4v-10h19.6c0.5,0,0.9-0.2,1.3-0.5c0.3-0.3,0.4-0.7,0.4-1.1v-8.5c0-0.4-0.1-0.9-0.5-1.2
	c-0.4-0.2-0.8-0.4-1.2-0.3h-19.6v-9.8h25.4c0.5,0,1-0.2,1.4-0.6c0.3-0.4,0.5-0.8,0.5-1.3v-9.7c0-0.5-0.1-1-0.5-1.4
	c-0.3-0.4-0.8-0.5-1.3-0.5h-38.9c-0.5,0-0.9,0.1-1.3,0.5c-0.3,0.4-0.5,0.8-0.5,1.3v54.8c0,0.5,0.1,0.9,0.5,1.3
	c0.3,0.3,0.8,0.4,1.2,0.4h39.7c1,0,1.5-0.4,1.6-1.1c0.2-0.2,0.3-0.4,0.3-0.7v-9.9c0.1-0.9-0.5-1.7-1.3-1.8
	C314.7,124.4,314.6,124.4,314.4,124.4z"/>
<path class="st1" d="M364.6,121.5c-0.2-0.3-0.6-0.6-1-0.7c-0.4,0-0.8,0.1-1.2,0.4c-1.3,1-2.7,1.7-4.3,2.2c-1.6,0.5-3.3,0.8-4.9,0.8
	c-4,0-7.8-1.6-10.6-4.5c-1.3-1.4-2.4-3.1-3.1-4.9c-0.7-1.9-1.1-3.9-1.1-6c0-2.1,0.4-4.1,1.1-6c0.7-1.8,1.7-3.5,3.1-4.9
	c2.7-2.9,6.6-4.6,10.6-4.6c3.3,0,6.5,1,9.1,3c0.3,0.3,0.8,0.4,1.2,0.3c0.4-0.1,0.7-0.4,0.9-0.8l6.6-9.4c0.3-0.5,0.3-1,0.1-1.5
	c-0.2-0.4-0.6-0.8-1-1c-2.4-1.6-5.1-2.9-7.9-3.8c-5.5-1.7-11.3-1.8-16.9-0.2c-2.5,0.7-4.9,1.7-7.2,3c-11.7,6.9-17.3,20.8-13.8,33.9
	c0.7,2.5,1.7,4.9,3,7.1c3.9,6.7,10.4,11.7,17.9,13.8c5.6,1.5,11.4,1.4,17-0.3c2.8-0.9,5.5-2.2,7.9-3.8c0.4-0.2,0.8-0.6,1-1
	c0.2-0.5,0.2-1-0.1-1.4L364.6,121.5z"/>
<path class="st1" d="M433.9,100.8c-0.7-2.5-1.7-4.9-3-7.2c-1.3-2.2-2.9-4.3-4.7-6.1c-1.8-1.8-3.9-3.4-6.1-4.7
	c-2.3-1.3-4.7-2.3-7.2-3c-5.2-1.4-10.8-1.4-16,0c-2.5,0.7-4.9,1.7-7.2,3c-2.2,1.3-4.3,2.9-6.1,4.7c-3.7,3.7-6.3,8.3-7.7,13.3
	c-2.2,7.8-1.1,16.1,3,23.1c1.3,2.2,2.9,4.2,4.7,6c1.8,1.8,3.9,3.4,6.1,4.7c9.4,5.5,20.9,5.5,30.3,0c2.2-1.3,4.3-2.9,6.1-4.7
	c1.8-1.8,3.4-3.8,4.7-6c1.3-2.2,2.3-4.6,3-7.1C435.3,111.6,435.3,106,433.9,100.8L433.9,100.8z M418.7,114.8
	c-0.7,1.8-1.7,3.5-3.1,4.9c-1.3,1.4-2.9,2.5-4.7,3.3c-3.8,1.6-8.1,1.6-11.9,0c-1.8-0.8-3.4-1.9-4.7-3.3c-1.3-1.4-2.4-3.1-3.1-4.9
	c-1.5-3.9-1.5-8.2,0-12.1c0.7-1.9,1.7-3.5,3.1-5c1.3-1.4,2.9-2.5,4.7-3.3c5.7-2.5,12.4-1.2,16.6,3.3c1.3,1.5,2.4,3.1,3.1,5
	C420.2,106.7,420.2,111,418.7,114.8L418.7,114.8z"/>
</svg>
