<svg version="1.1" id="Capa_1" xmlns="http://www.w3.org/2000/svg" x="0" y="0" viewBox="0 0 446 224" style="enable-background:new 0 0 446 224" xml:space="preserve"><style>.st0{fill:#d7187d}.st1{fill:#482aaa}</style><path class="st0" d="M82.9 99.9H66v-79c0-3.4-2.7-6.1-6.1-6-2.3 0-4.5 1.4-5.5 3.5l-42.1 88.8c-3.2 6.6-.4 14.5 6.3 17.7 1.8.9 3.8 1.3 5.7 1.3h16.9v79c0 2.8 2 5.3 4.7 5.9.4.1.9.2 1.3.1 2.3 0 4.5-1.3 5.5-3.5l42.1-88.8c3.2-6.6.4-14.5-6.2-17.7-1.8-.9-3.7-1.4-5.7-1.3zm-32.8 26.2h2.3c7.5 0 13.6-6.1 13.6-13.6v-3.7h16.9c2.4 0 4.4 1.9 4.4 4.3 0 .7-.1 1.3-.4 1.9l-36.8 77.5v-66.4zm7-26.2h-2.3c-7.5 0-13.6 6.1-13.6 13.6v3.7H24.3c-2.4 0-4.4-2-4.3-4.4 0-.6.1-1.2.4-1.8l36.7-77.5v66.4zm-7 13.6c0-2.6 2.1-4.7 4.7-4.7h2.3v3.7c0 2.6-2.1 4.7-4.7 4.7h-2.3v-3.7zM146.8 86l-1-2.2c-.2-.3-.4-.5-.7-.7-.3-.3-.7-.4-1.1-.4h-10c-.2 0-.5 0-.7.1s-.5.2-.7.4c-.2.1-.4.3-.5.5-.1.1-.2.3-.2.5l-21.3 55.2c-.2.4-.2.9.2 1.2.4.3.8.4 1.2.4h11.6c.9 0 1.7-.6 2-1.4.5-1.3 1-2.7 1.5-4s1-2.6 1.5-4h20.8c.5 1.3 1 2.7 1.5 4s1 2.6 1.5 4c.1.4.4.8.8 1.1.4.3.9.4 1.4.3h11.3c.5 0 1.1-.1 1.5-.5.3-.4.3-.9.1-1.3L146.8 86zm-13.9 32.9c.5-1.3 1-2.8 1.5-4.3s1-3.1 1.5-4.7 1-3.1 1.5-4.7 1-3 1.5-4.3l6 17.9-12 .1zM210.6 127H189V84.3c0-.5-.2-.9-.6-1.2-.3-.3-.8-.5-1.2-.5h-11.6c-.5 0-1 .2-1.3.5s-.5.8-.5 1.2v54.8c-.1.8.4 1.6 1.3 1.7h35.4c.5 0 1-.2 1.3-.6.3-.3.4-.8.4-1.2v-10.3c0-.5-.2-1-.5-1.3-.3-.2-.7-.4-1.1-.4zM258.1 110.8c-1.8-1.5-3.9-2.7-6.1-3.6-2.3-1-4.9-2-7.7-2.9-1.4-.5-2.7-.9-3.8-1.3-1-.3-1.9-.8-2.7-1.3-.6-.4-1.2-.9-1.6-1.5-.4-.6-.6-1.2-.6-1.9s.2-1.3.5-1.9c.3-.5.8-.9 1.4-1.2.6-.3 1.3-.6 2-.7.8-.1 1.6-.2 2.4-.2.8 0 1.7.1 2.5.4.8.2 1.6.6 2.3.9.7.4 1.4.8 2.1 1.3.6.5 1.2.9 1.8 1.4l.4.3c.3.3.7.5 1 .8.3.2.6.3 1 .3.5 0 1-.3 1.3-.7l6-6.4c.3-.3.5-.6.8-1 .2-.3.3-.6.3-.9 0-.5-.2-.9-.5-1.2-.4-.5-.9-1-1.4-1.5-.6-.5-1.3-1.1-2.1-1.6s-1.6-1.1-2.5-1.6c-2-1.1-4.2-2-6.4-2.6-2.2-.5-4.5-.8-6.9-.8-2.9 0-5.8.4-8.6 1.2-2.4.7-4.6 1.8-6.6 3.3-1.8 1.4-3.2 3.1-4.2 5.1-1 2.1-1.5 4.3-1.5 6.6-.1 4.3 1.6 8.4 4.7 11.4 1.8 1.7 3.7 3.1 5.9 4.2 2.6 1.4 5.4 2.6 8.2 3.5.7.2 1.5.5 2.5.9 1 .3 1.9.8 2.8 1.3.8.5 1.6 1 2.2 1.7.6.6.9 1.4.9 2.2 0 .7-.1 1.4-.3 2.1s-.6 1.2-1.1 1.7c-.6.6-1.3 1-2.1 1.2-1.1.3-2.2.5-3.4.5-1.4 0-2.8-.2-4.1-.8-1.4-.5-2.8-1.2-4-2.1l-2.4-1.8c-.7-.6-1.3-1.1-1.7-1.5-.3-.3-.6-.5-.9-.7-.2-.1-.5-.2-.8-.2-.5.1-1 .3-1.3.6l-6.7 6.5c-.5.4-.8.9-.9 1.5.1.6.4 1.2.9 1.6l.1.1.1.1.1.1.1.1.1.1c.4.4 1 1 1.7 1.8.8.8 1.7 1.6 2.6 2.2 2.5 1.8 5.2 3.3 8.1 4.3 2.8 1.1 5.8 1.6 8.9 1.6 3 0 6.1-.4 8.9-1.4 2.6-.8 5.1-2.1 7.2-3.8 2-1.6 3.7-3.7 4.9-6 1.2-2.4 1.8-5.1 1.8-7.8.1-2.4-.4-4.8-1.4-7-1.2-2-2.5-3.7-4.2-5zM314.4 127.4H288v-10h19.6c.5 0 .9-.2 1.3-.5.3-.3.4-.7.4-1.1v-8.5c0-.4-.1-.9-.5-1.2-.4-.2-.8-.4-1.2-.3H288V96h25.4c.5 0 1-.2 1.4-.6.3-.4.5-.8.5-1.3v-9.7c0-.5-.1-1-.5-1.4-.3-.4-.8-.5-1.3-.5h-38.9c-.5 0-.9.1-1.3.5-.3.4-.5.8-.5 1.3v54.8c0 .5.1.9.5 1.3.3.3.8.4 1.2.4h39.7c1 0 1.5-.4 1.6-1.1.2-.2.3-.4.3-.7v-9.9c.1-.9-.5-1.7-1.3-1.8-.1.1-.2.1-.4.1zM364.6 124.5c-.2-.3-.6-.6-1-.7-.4 0-.8.1-1.2.4-1.3 1-2.7 1.7-4.3 2.2-1.6.5-3.3.8-4.9.8-4 0-7.8-1.6-10.6-4.5-1.3-1.4-2.4-3.1-3.1-4.9-.7-1.9-1.1-3.9-1.1-6s.4-4.1 1.1-6c.7-1.8 1.7-3.5 3.1-4.9 2.7-2.9 6.6-4.6 10.6-4.6 3.3 0 6.5 1 9.1 3 .3.3.8.4 1.2.3.4-.1.7-.4.9-.8l6.6-9.4c.3-.5.3-1 .1-1.5-.2-.4-.6-.8-1-1-2.4-1.6-5.1-2.9-7.9-3.8-5.5-1.7-11.3-1.8-16.9-.2-2.5.7-4.9 1.7-7.2 3-11.7 6.9-17.3 20.8-13.8 33.9.7 2.5 1.7 4.9 3 7.1 3.9 6.7 10.4 11.7 17.9 13.8 5.6 1.5 11.4 1.4 17-.3 2.8-.9 5.5-2.2 7.9-3.8.4-.2.8-.6 1-1 .2-.5.2-1-.1-1.4l-6.4-9.7zM433.9 103.8c-.7-2.5-1.7-4.9-3-7.2-1.3-2.2-2.9-4.3-4.7-6.1-1.8-1.8-3.9-3.4-6.1-4.7-2.3-1.3-4.7-2.3-7.2-3-5.2-1.4-10.8-1.4-16 0-2.5.7-4.9 1.7-7.2 3-2.2 1.3-4.3 2.9-6.1 4.7-3.7 3.7-6.3 8.3-7.7 13.3-2.2 7.8-1.1 16.1 3 23.1 1.3 2.2 2.9 4.2 4.7 6 1.8 1.8 3.9 3.4 6.1 4.7 9.4 5.5 20.9 5.5 30.3 0 2.2-1.3 4.3-2.9 6.1-4.7 1.8-1.8 3.4-3.8 4.7-6 1.3-2.2 2.3-4.6 3-7.1 1.5-5.2 1.5-10.8.1-16zm-15.2 14c-.7 1.8-1.7 3.5-3.1 4.9-1.3 1.4-2.9 2.5-4.7 3.3-3.8 1.6-8.1 1.6-11.9 0-1.8-.8-3.4-1.9-4.7-3.3-1.3-1.4-2.4-3.1-3.1-4.9-1.5-3.9-1.5-8.2 0-12.1.7-1.9 1.7-3.5 3.1-5 1.3-1.4 2.9-2.5 4.7-3.3 5.7-2.5 12.4-1.2 16.6 3.3 1.3 1.5 2.4 3.1 3.1 5 1.5 4 1.5 8.3 0 12.1z"/><path class="st1" d="M82.9 96.9H66v-79c0-3.4-2.7-6.1-6.1-6-2.3 0-4.5 1.4-5.5 3.5l-42.1 88.8c-3.2 6.6-.4 14.5 6.3 17.7 1.8.9 3.8 1.3 5.7 1.3h16.9v79c0 2.8 2 5.3 4.7 5.9.4.1.9.2 1.3.1 2.3 0 4.5-1.3 5.5-3.5l42.1-88.8c3.2-6.6.4-14.5-6.2-17.7-1.8-.9-3.7-1.4-5.7-1.3zm-32.8 26.2h2.3c7.5 0 13.6-6.1 13.6-13.6v-3.7h16.9c2.4 0 4.4 1.9 4.4 4.3 0 .7-.1 1.3-.4 1.9l-36.8 77.5v-66.4zm7-26.2h-2.3c-7.5 0-13.6 6.1-13.6 13.6v3.7H24.3c-2.4 0-4.4-2-4.3-4.4 0-.6.1-1.2.4-1.8l36.7-77.5v66.4zm-7 13.6c0-2.6 2.1-4.7 4.7-4.7h2.3v3.7c0 2.6-2.1 4.7-4.7 4.7h-2.3v-3.7zM146.8 83l-1-2.2c-.2-.3-.4-.5-.7-.7-.3-.3-.7-.4-1.1-.4h-10c-.2 0-.5 0-.7.1s-.5.2-.7.4c-.2.1-.4.3-.5.5-.1.1-.2.3-.2.5l-21.3 55.2c-.2.4-.2.9.2 1.2.4.3.8.4 1.2.4h11.6c.9 0 1.7-.6 2-1.4.5-1.3 1-2.7 1.5-4s1-2.6 1.5-4h20.8c.5 1.3 1 2.7 1.5 4s1 2.6 1.5 4c.1.4.4.8.8 1.1.4.3.9.4 1.4.3h11.3c.5 0 1.1-.1 1.5-.5.3-.4.3-.9.1-1.3L146.8 83zm-13.9 32.9c.5-1.3 1-2.8 1.5-4.3s1-3.1 1.5-4.7 1-3.1 1.5-4.7 1-3 1.5-4.3l6 17.9-12 .1zM210.6 124H189V81.3c0-.5-.2-.9-.6-1.2-.3-.3-.8-.5-1.2-.5h-11.6c-.5 0-1 .2-1.3.5s-.5.8-.5 1.2v54.8c-.1.8.4 1.6 1.3 1.7h35.4c.5 0 1-.2 1.3-.6.3-.3.4-.8.4-1.2v-10.3c0-.5-.2-1-.5-1.3-.3-.2-.7-.4-1.1-.4zM258.1 107.8c-1.8-1.5-3.9-2.7-6.1-3.6-2.3-1-4.9-2-7.7-2.9-1.4-.5-2.7-.9-3.8-1.3-1-.3-1.9-.8-2.7-1.3-.6-.4-1.2-.9-1.6-1.5-.4-.6-.6-1.2-.6-1.9s.2-1.3.5-1.9c.3-.5.8-.9 1.4-1.2.6-.3 1.3-.6 2-.7.8-.1 1.6-.2 2.4-.2.8 0 1.7.1 2.5.4.8.2 1.6.6 2.3.9.7.4 1.4.8 2.1 1.3.6.5 1.2.9 1.8 1.4l.4.3c.3.3.7.5 1 .8.3.2.6.3 1 .3.5 0 1-.3 1.3-.7l6-6.4c.3-.3.5-.6.8-1 .2-.3.3-.6.3-.9 0-.5-.2-.9-.5-1.2-.4-.5-.9-1-1.4-1.5-.6-.5-1.3-1.1-2.1-1.6s-1.6-1.1-2.5-1.6c-2-1.1-4.2-2-6.4-2.6-2.2-.5-4.5-.8-6.9-.8-2.9 0-5.8.4-8.6 1.2-2.4.7-4.6 1.8-6.6 3.3-1.8 1.4-3.2 3.1-4.2 5.1-1 2.1-1.5 4.3-1.5 6.6-.1 4.3 1.6 8.4 4.7 11.4 1.8 1.7 3.7 3.1 5.9 4.2 2.6 1.4 5.4 2.6 8.2 3.5.7.2 1.5.5 2.5.9 1 .3 1.9.8 2.8 1.3.8.5 1.6 1 2.2 1.7.6.6.9 1.4.9 2.2 0 .7-.1 1.4-.3 2.1s-.6 1.2-1.1 1.7c-.6.6-1.3 1-2.1 1.2-1.1.3-2.2.5-3.4.4-1.4 0-2.8-.2-4.1-.8-1.4-.5-2.8-1.2-4-2.1l-2.4-1.8c-.7-.6-1.3-1.1-1.7-1.5-.3-.3-.6-.5-.9-.7-.2-.1-.5-.2-.8-.2-.5.1-1 .3-1.3.6l-6.7 6.5c-.5.4-.8.9-.9 1.5.1.6.4 1.2.9 1.6l.1.1.1.1.1.1.1.1.1.1c.4.4 1 1 1.7 1.8.8.8 1.7 1.6 2.6 2.2 2.5 1.8 5.2 3.3 8.1 4.3 2.8 1.1 5.8 1.6 8.9 1.6 3 0 6.1-.4 8.9-1.4 2.6-.8 5.1-2.1 7.2-3.8 2-1.6 3.7-3.7 4.9-6 1.2-2.4 1.8-5.1 1.8-7.8.1-2.4-.4-4.8-1.4-7-1.2-1.9-2.5-3.6-4.2-4.9zM314.4 124.4H288v-10h19.6c.5 0 .9-.2 1.3-.5.3-.3.4-.7.4-1.1v-8.5c0-.4-.1-.9-.5-1.2-.4-.2-.8-.4-1.2-.3H288V93h25.4c.5 0 1-.2 1.4-.6.3-.4.5-.8.5-1.3v-9.7c0-.5-.1-1-.5-1.4-.3-.4-.8-.5-1.3-.5h-38.9c-.5 0-.9.1-1.3.5-.3.4-.5.8-.5 1.3v54.8c0 .5.1.9.5 1.3.3.3.8.4 1.2.4h39.7c1 0 1.5-.4 1.6-1.1.2-.2.3-.4.3-.7v-9.9c.1-.9-.5-1.7-1.3-1.8-.1.1-.2.1-.4.1zM364.6 121.5c-.2-.3-.6-.6-1-.7-.4 0-.8.1-1.2.4-1.3 1-2.7 1.7-4.3 2.2-1.6.5-3.3.8-4.9.8-4 0-7.8-1.6-10.6-4.5-1.3-1.4-2.4-3.1-3.1-4.9-.7-1.9-1.1-3.9-1.1-6s.4-4.1 1.1-6c.7-1.8 1.7-3.5 3.1-4.9 2.7-2.9 6.6-4.6 10.6-4.6 3.3 0 6.5 1 9.1 3 .3.3.8.4 1.2.3.4-.1.7-.4.9-.8l6.6-9.4c.3-.5.3-1 .1-1.5-.2-.4-.6-.8-1-1-2.4-1.6-5.1-2.9-7.9-3.8-5.5-1.7-11.3-1.8-16.9-.2-2.5.7-4.9 1.7-7.2 3-11.7 6.9-17.3 20.8-13.8 33.9.7 2.5 1.7 4.9 3 7.1 3.9 6.7 10.4 11.7 17.9 13.8 5.6 1.5 11.4 1.4 17-.3 2.8-.9 5.5-2.2 7.9-3.8.4-.2.8-.6 1-1 .2-.5.2-1-.1-1.4l-6.4-9.7zM433.9 100.8c-.7-2.5-1.7-4.9-3-7.2-1.3-2.2-2.9-4.3-4.7-6.1-1.8-1.8-3.9-3.4-6.1-4.7-2.3-1.3-4.7-2.3-7.2-3-5.2-1.4-10.8-1.4-16 0-2.5.7-4.9 1.7-7.2 3-2.2 1.3-4.3 2.9-6.1 4.7-3.7 3.7-6.3 8.3-7.7 13.3-2.2 7.8-1.1 16.1 3 23.1 1.3 2.2 2.9 4.2 4.7 6 1.8 1.8 3.9 3.4 6.1 4.7 9.4 5.5 20.9 5.5 30.3 0 2.2-1.3 4.3-2.9 6.1-4.7 1.8-1.8 3.4-3.8 4.7-6 1.3-2.2 2.3-4.6 3-7.1 1.5-5.2 1.5-10.8.1-16zm-15.2 14c-.7 1.8-1.7 3.5-3.1 4.9-1.3 1.4-2.9 2.5-4.7 3.3-3.8 1.6-8.1 1.6-11.9 0-1.8-.8-3.4-1.9-4.7-3.3-1.3-1.4-2.4-3.1-3.1-4.9-1.5-3.9-1.5-8.2 0-12.1.7-1.9 1.7-3.5 3.1-5 1.3-1.4 2.9-2.5 4.7-3.3 5.7-2.5 12.4-1.2 16.6 3.3 1.3 1.5 2.4 3.1 3.1 5 1.5 4 1.5 8.3 0 12.1z"/></svg>
